# xmcd
#
# Track frame offsets:
#	183
#	17458
#	39933
#	56358
#	74308
#	89545
#	106745
#	126258
#
# Disc length: 1913 seconds
#
# Revision: 0
# Processed by: cddbd v1.5.2PL0 Copyright (c) Steve Scherf et al.
# Submitted via: EasyCDDAExtractor 8.2.1.1
#
DISCID=5c077708
DTITLE=Dr. Felix - Different Style
DYEAR=1989
DGENRE=Soul
TTITLE0=Party Time
TTITLE1=Keep on Trying
TTITLE2=Funky House
TTITLE3=Wake up
TTITLE4=Coming back
TTITLE5=I can´t stand It
TTITLE6=Relax your Body
TTITLE7=What a wonderful World
EXTD=
EXTT0=
EXTT1=
EXTT2=
EXTT3=
EXTT4=
EXTT5=
EXTT6=
EXTT7=
PLAYORDER=
